<svg xmlns="http://www.w3.org/2000/svg" xmlns:xlink="http://www.w3.org/1999/xlink" preserveAspectRatio="xMidYMid" width="120" height="120" viewBox="0 0 120 120">
  <defs>
    <style>
      .cls-1 {
        fill: #fff;
        fill-rule: evenodd;
      }
    </style>
  </defs>
  <path d="M108.946,62.565 C107.750,62.565 106.732,62.693 105.891,62.947 C105.049,63.202 104.368,63.595 103.849,64.126 C103.328,64.657 102.952,65.338 102.720,66.168 C102.487,66.998 102.371,67.989 102.371,69.140 L102.371,77.873 C102.371,80.153 102.110,82.151 101.591,83.867 C101.070,85.582 100.257,87.016 99.150,88.167 C98.043,89.318 96.626,90.187 94.900,90.774 C93.173,91.360 91.103,91.654 88.690,91.654 L85.901,91.654 L85.901,85.411 L88.026,85.411 C89.088,85.411 90.046,85.289 90.898,85.046 C91.750,84.802 92.486,84.387 93.106,83.800 C93.726,83.214 94.202,82.450 94.534,81.509 C94.866,80.568 95.032,79.401 95.032,78.006 L95.032,69.372 C95.032,67.712 95.170,66.290 95.447,65.105 C95.724,63.921 96.145,62.936 96.709,62.150 C97.274,61.365 97.999,60.761 98.884,60.340 C99.769,59.920 100.810,59.621 102.006,59.444 C99.637,59.156 97.882,58.221 96.742,56.638 C95.602,55.055 95.032,52.626 95.032,49.349 L95.032,43.804 C95.032,42.365 94.866,41.164 94.534,40.201 C94.202,39.238 93.726,38.469 93.106,37.893 C92.486,37.318 91.750,36.908 90.898,36.664 C90.046,36.421 89.088,36.299 88.026,36.299 L85.901,36.299 L85.901,30.057 L88.690,30.057 C93.294,30.057 96.726,31.158 98.984,33.361 C101.242,35.564 102.371,39.067 102.371,43.870 L102.371,49.449 C102.371,51.729 102.874,53.439 103.882,54.579 C104.889,55.720 106.577,56.289 108.946,56.289 L111.071,56.289 L111.071,62.565 L108.946,62.565 ZM74.876,63.976 C74.079,65.161 73.033,66.096 71.738,66.782 C70.443,67.469 68.866,67.812 67.006,67.812 C65.766,67.812 64.643,67.607 63.636,67.197 C62.628,66.788 61.710,66.279 60.880,65.670 C60.050,65.061 59.286,64.397 58.589,63.678 C57.891,62.958 57.222,62.300 56.580,61.702 C55.937,61.104 55.307,60.601 54.687,60.191 C54.067,59.782 53.414,59.577 52.728,59.577 C51.754,59.577 51.001,60.008 50.470,60.872 C49.939,61.735 49.673,63.252 49.673,65.421 L42.866,65.421 C42.866,63.694 43.043,62.050 43.397,60.490 C43.751,58.929 44.327,57.562 45.124,56.389 C45.921,55.216 46.967,54.286 48.262,53.600 C49.557,52.914 51.134,52.570 52.994,52.570 C54.233,52.570 55.356,52.775 56.364,53.184 C57.371,53.594 58.290,54.103 59.120,54.712 C59.950,55.321 60.714,55.979 61.411,56.688 C62.109,57.396 62.778,58.055 63.420,58.663 C64.062,59.273 64.693,59.782 65.313,60.191 C65.932,60.601 66.586,60.805 67.272,60.805 C68.268,60.805 69.026,60.368 69.547,59.494 C70.067,58.619 70.327,57.098 70.327,54.928 L77.134,54.928 C77.134,56.654 76.957,58.298 76.603,59.859 C76.249,61.420 75.673,62.792 74.876,63.976 ZM21.049,88.350 C18.791,86.147 17.662,82.655 17.662,77.873 L17.662,69.439 C17.662,67.159 17.153,65.443 16.135,64.292 C15.116,63.141 13.423,62.565 11.054,62.565 L8.962,62.565 L8.962,56.289 L11.054,56.289 C12.250,56.289 13.268,56.162 14.109,55.907 C14.950,55.653 15.637,55.260 16.168,54.729 C16.699,54.197 17.081,53.517 17.314,52.686 C17.546,51.856 17.662,50.866 17.662,49.714 L17.662,43.870 C17.662,41.590 17.922,39.587 18.443,37.860 C18.963,36.133 19.776,34.694 20.883,33.543 C21.990,32.392 23.401,31.523 25.117,30.936 C26.832,30.350 28.897,30.057 31.310,30.057 L34.099,30.057 L34.099,36.299 L32.007,36.299 C30.945,36.299 29.987,36.427 29.135,36.681 C28.283,36.936 27.546,37.351 26.927,37.926 C26.307,38.502 25.831,39.260 25.499,40.201 C25.167,41.142 25.001,42.310 25.001,43.704 L25.001,49.515 C25.001,51.176 24.862,52.592 24.586,53.766 C24.309,54.939 23.883,55.919 23.307,56.704 C22.731,57.490 22.001,58.099 21.116,58.531 C20.230,58.962 19.190,59.267 17.994,59.444 C20.363,59.709 22.123,60.634 23.274,62.217 C24.425,63.799 25.001,66.229 25.001,69.505 L25.001,77.940 C25.001,79.378 25.167,80.574 25.499,81.526 C25.831,82.477 26.307,83.241 26.927,83.817 C27.546,84.392 28.283,84.802 29.135,85.046 C29.987,85.289 30.945,85.411 32.007,85.411 L34.099,85.411 L34.099,91.654 L31.310,91.654 C26.728,91.654 23.307,90.552 21.049,88.350 Z" class="cls-1"/>
</svg>
